# xmcd
#
# Track frame offsets:
#	150
#	13009
#	26464
#	37800
#	51664
#	65165
#	77404
#	88653
#	99069
#	111747
#	123886
#	135742
#	147223
#	156192
#	171306
#	182714
#
# Disc length: 2652 seconds
#
# Revision: 1
# Processed by: cddbd v1.5.2PL0 Copyright (c) Steve Scherf et al.
# Submitted via: audiograbber 1.83.01
#
DISCID=d60a5a10
DTITLE=B.B. King - Three o`clock blues
DYEAR=2008
DGENRE=Blues
TTITLE0=Please love me
TTITLE1=Woke up this morning (My baby she was gone)
TTITLE2=Shake it up and go
TTITLE3=She don´t move me no more
TTITLE4=Three o`clock blues
TTITLE5=I gotta found my baby
TTITLE6=She´s dynamite
TTITLE7=They ain´t the way to do it
TTITLE8=Got the blues
TTITLE9=Miss Martha King
TTITLE10=Take a swing with me
TTITLE11=Hard working woman
TTITLE12=My baby´s gone
TTITLE13=My own fault Darlin´
TTITLE14=She´s a mean woman
TTITLE15=The other night blues
EXTD=
EXTT0=
EXTT1=
EXTT2=
EXTT3=
EXTT4=
EXTT5=
EXTT6=
EXTT7=
EXTT8=
EXTT9=
EXTT10=
EXTT11=
EXTT12=
EXTT13=
EXTT14=
EXTT15=
PLAYORDER=
